#N canvas -57 -958 713 747 12;
#X obj 218 586 *~;
#X obj 219 707 dac~;
#N canvas 588 -516 692 300 oscillators 0;
#X obj 43 112 phasor~;
#X obj 43 139 expr~ $v1 *2 + 1;
#X floatatom 43 59 5 0 0 0 - - - 0;
#X obj 165 114 phasor~;
#X obj 165 139 expr~ $v1 *2 + 1;
#X obj 165 88 * 1.001;
#X obj 42 23 inlet;
#X obj 40 202 outlet~, f 8;
#X obj 302 115 phasor~;
#X obj 302 140 expr~ $v1 *2 + 1;
#X obj 302 89 * 2.002;
#X obj 443 113 phasor~;
#X obj 443 138 expr~ $v1 *2 + 1;
#X obj 443 87 * 4.004;
#X connect 0 0 1 0;
#X connect 1 0 7 0;
#X connect 2 0 0 0;
#X connect 2 0 5 0;
#X connect 2 0 10 0;
#X connect 2 0 13 0;
#X connect 3 0 4 0;
#X connect 4 0 7 0;
#X connect 5 0 3 0;
#X connect 6 0 2 0;
#X connect 8 0 9 0;
#X connect 9 0 7 0;
#X connect 10 0 8 0;
#X connect 11 0 12 0;
#X connect 12 0 7 0;
#X connect 13 0 11 0;
#X restore 147 183 pd oscillators;
#X obj 206 30 notein;
#X obj 206 128 mtof;
#N canvas 506 238 450 300 filters 0;
#X obj 123 230 vcf~;
#X msg 123 86 1.5;
#X obj 66 46 loadbang;
#X obj 23 19 inlet~;
#X obj 124 264 outlet~;
#X obj 201 35 receive cutoff;
#X floatatom 201 65 5 0 0 0 - - - 0;
#X obj 181 6 receive reso;
#X msg 67 86 20000;
#X floatatom 207 109 5 0 100 0 - - - 0;
#X connect 0 0 4 0;
#X connect 0 1 4 0;
#X connect 1 0 0 2;
#X connect 2 0 8 0;
#X connect 2 0 1 0;
#X connect 3 0 0 0;
#X connect 5 0 6 0;
#X connect 6 0 0 1;
#X connect 7 0 9 0;
#X connect 8 0 0 1;
#X connect 9 0 0 2;
#X restore 178 216 pd filters;
#X obj 206 78 stripnote;
#X floatatom 273 113 5 0 0 0 - - - 0;
#X floatatom 205 153 5 0 0 0 - - - 0;
#X floatatom 239 560 5 0 1 0 - - - 0;
#N canvas -402 -396 450 300 amplifiers 0;
#X obj 143 180 vline~;
#X obj 125 218 *~;
#X obj 166 48 / 127;
#X msg 143 139 \$1 5 \, \$2 200 5;
#X obj 170 78 * 0.5;
#X obj 145 106 pack;
#X obj 220 46 sel 0;
#X obj 163 16 inlet;
#X obj 218 16 inlet;
#X obj 84 26 inlet~;
#X obj 123 254 outlet~;
#X obj 304 23 receive release;
#X floatatom 304 47 5 0 0 0 - - - 0;
#X obj 304 70 * 20;
#X floatatom 304 94 5 0 0 0 - - - 0;
#X obj 285 170 f;
#X msg 231 163 0 \$1;
#X obj 283 132 bng 19 250 50 0 empty empty empty 0 -10 0 12 #fcfcfc #000000 #000000;
#X obj 363 92 loadbang;
#X msg 362 118 700;
#X connect 0 0 1 1;
#X connect 1 0 10 0;
#X connect 2 0 4 0;
#X connect 2 0 5 0;
#X connect 3 0 0 0;
#X connect 4 0 5 1;
#X connect 5 0 3 0;
#X connect 6 0 17 0;
#X connect 7 0 2 0;
#X connect 8 0 6 0;
#X connect 9 0 1 0;
#X connect 11 0 12 0;
#X connect 12 0 13 0;
#X connect 13 0 14 0;
#X connect 14 0 15 1;
#X connect 15 0 16 0;
#X connect 16 0 0 0;
#X connect 17 0 15 0;
#X connect 18 0 19 0;
#X connect 19 0 15 1;
#X restore 199 268 pd amplifiers;
#X obj 496 81 ctlin 10;
#X obj 495 568 ctlin 74;
#X obj 561 175 send cutoff;
#X obj 540 671 send release;
#X floatatom 561 149 5 0 10000 0 - - - 0;
#X floatatom 540 648 5 0 0 0 - - - 0;
#X obj 79 22 r notein;
#X obj 92 442 r set_volume;
#X obj 560 79 r set_cutoff;
#X obj 561 566 r set_release;
#X obj 78 53 unpack f f;
#X obj 78 82 makenote 100 500;
#N canvas 810 -669 371 531 chorus 0;
#X obj 39 43 delwrite~ \$0-buffer 100;
#X obj 37 245 delread4~ \$0-buffer;
#X obj 49 279 hsl 162 19 0 1 0 0 empty empty empty -2 -10 0 12 #fcfcfc #000000 #000000 0 1;
#X obj 36 304 *~;
#X obj 38 132 osc~;
#X floatatom 38 106 5 0 2 0 - - - 0;
#X obj 38 156 expr~ ($v1 + 1) / 2;
#X obj 38 180 *~;
#X floatatom 155 182 5 0 127 0 - - - 0;
#X obj 38 208 +~ 5;
#X obj 80 207 delread4~ \$0-buffer;
#X obj 40 77 hsl 162 19 0 2 0 0 empty empty empty -2 -10 0 12 #fcfcfc #000000 #000000 0 1;
#X obj 36 330 outlet~;
#X obj 39 10 inlet~;
#X obj 125 11 inlet;
#X obj 190 246 inlet;
#X connect 1 0 3 0;
#X connect 2 0 3 1;
#X connect 3 0 12 0;
#X connect 4 0 6 0;
#X connect 5 0 4 0;
#X connect 6 0 7 0;
#X connect 7 0 9 0;
#X connect 8 0 7 1;
#X connect 9 0 1 0;
#X connect 10 0 1 0;
#X connect 11 0 5 0;
#X connect 13 0 0 0;
#X connect 14 0 11 0;
#X connect 15 0 2 0;
#X restore 115 323 pd chorus;
#X obj 86 253 r lfo_freq;
#X obj 85 223 r chorus;
#X obj 244 501 loadbang;
#X msg 239 534 0.8;
#X obj 567 595 loadbang;
#X obj 572 99 loadbang;
#X msg 572 125 10000;
#X msg 555 623 10;
#X obj 521 213 ctlin 10;
#X floatatom 585 282 5 0 100 0 - - - 0;
#X obj 597 231 loadbang;
#X obj 585 211 r set_reso;
#X obj 586 307 send reso;
#X msg 597 257 2;
#X floatatom 502 483 5 0 1 0 - - - 0;
#X floatatom 472 417 5 0 0 0 - - - 0;
#X obj 358 511 +~;
#X obj 411 515 +~;
#X floatatom 509 416 5 0 0 0 - - - 0;
#X floatatom 393 417 5 0 0 0 - - - 0;
#X obj 288 26 r set_reverb;
#X obj 336 48 r set_feed;
#X obj 380 26 r set_crossfreq;
#X obj 414 48 r set_damp;
#X msg 572 429 1;
#X obj 588 347 loadbang;
#X floatatom 434 417 5 0 0 0 - - - 0;
#X msg 511 321 90;
#X msg 519 357 3000;
#X msg 543 386 20;
#X msg 500 285 0;
#N canvas 61 61 1042 655 reverb 0;
#X obj 429 445 +~;
#X obj 770 14 inlet;
#X obj 448 345 *~;
#X obj 704 345 *~;
#X obj 543 345 *~;
#X obj 605 345 *~;
#X obj 664 492 -~;
#X obj 587 492 -~;
#X obj 507 492 +~;
#X obj 429 492 +~;
#X obj 430 382 +~;
#X obj 525 382 +~;
#X obj 682 445 -~;
#X obj 605 445 +~;
#X obj 507 445 -~;
#X obj 702 14 inlet;
#X obj 837 367 line~;
#X obj 722 302 line~;
#X obj 324 89 delread~ \$0-del1 58.6435, f 8;
#X obj 402 89 delread~ \$0-del2 69.4325, f 8;
#X obj 484 89 delread~ \$0-del3 74.5234, f 8;
#X obj 576 90 delread~ \$0-del4 86.1244, f 8;
#X obj 750 445 *~;
#X obj 819 445 *~;
#X obj 429 529 delwrite~ \$0-del1 58.6435, f 9;
#X obj 507 529 delwrite~ \$0-del2 69.4325, f 9;
#X obj 587 529 delwrite~ \$0-del3 74.5234, f 9;
#X obj 664 529 delwrite~ \$0-del4 86.1244, f 9;
#X obj 837 295 dbtorms;
#X obj 837 341 pack 0 30;
#X obj 770 149 pack 0 50;
#X obj 287 14 inlet~;
#X obj 750 613 outlet~;
#X obj 819 613 outlet~;
#X obj 770 125 / 200;
#X obj 770 100 clip 0 100;
#X obj 364 174 lop~;
#X obj 702 76 f \$1;
#X obj 770 76 f \$2;
#X obj 875 76 f \$3;
#X obj 946 76 f \$4;
#X obj 875 42 loadbang;
#X obj 887 445 *~;
#X obj 955 445 *~;
#X obj 887 613 outlet~;
#X obj 955 613 outlet~;
#X obj 875 105 moses 1;
#X msg 875 129 3000;
#X obj 946 131 clip 0 100;
#X obj 868 157 f;
#X obj 868 14 inlet;
#X obj 946 14 inlet;
#X obj 946 154 f;
#X obj 946 177 * 0.01;
#X obj 946 201 pack 0 50;
#X obj 946 225 line~;
#X obj 342 212 -~;
#X obj 342 238 *~;
#X obj 324 283 +~;
#X obj 442 177 lop~;
#X obj 421 212 -~;
#X obj 421 247 *~;
#X obj 403 283 +~;
#X obj 529 182 lop~;
#X obj 503 212 -~;
#X obj 502 252 *~;
#X obj 484 283 +~;
#X obj 611 187 lop~;
#X obj 584 212 -~;
#X obj 584 256 *~;
#X obj 566 283 +~;
#X obj 837 317 * 0.125;
#X obj 110 144 -~;
#X obj 7 129 +~;
#X obj 8 205 +~;
#X obj 92 221 -~;
#X obj 74 300 -~;
#X obj 7 284 +~;
#X obj 56 376 -~;
#X obj 6 360 +~;
#X obj 38 455 -~;
#X obj 6 438 +~;
#X obj 128 87 delwrite~ \$0-ref1 43.5337;
#X obj 128 111 delread~ \$0-ref1 43.5337;
#X obj 110 170 delwrite~ \$0-ref2 25.796;
#X obj 110 194 delread~ \$0-ref2 25.796;
#X obj 92 248 delwrite~ \$0-ref3 19.392;
#X obj 92 272 delread~ \$0-ref3 19.392;
#X obj 74 325 delwrite~ \$0-ref4 16.364;
#X obj 74 349 delread~ \$0-ref4 16.364;
#X obj 38 479 delwrite~ \$0-ref6 4.2546;
#X obj 38 504 delread~ \$0-ref6 4.2546;
#X obj 56 403 delwrite~ \$0-ref5 7.645;
#X obj 56 427 delread~ \$0-ref5 7.645;
#X connect 0 0 9 0;
#X connect 0 0 7 0;
#X connect 1 0 38 0;
#X connect 2 0 10 1;
#X connect 3 0 12 1;
#X connect 3 0 13 1;
#X connect 3 0 43 0;
#X connect 4 0 11 1;
#X connect 5 0 13 0;
#X connect 5 0 12 0;
#X connect 5 0 42 0;
#X connect 6 0 27 0;
#X connect 7 0 26 0;
#X connect 8 0 25 0;
#X connect 9 0 24 0;
#X connect 10 0 14 0;
#X connect 10 0 0 0;
#X connect 10 0 22 0;
#X connect 11 0 0 1;
#X connect 11 0 14 1;
#X connect 11 0 23 0;
#X connect 12 0 8 1;
#X connect 12 0 6 1;
#X connect 13 0 9 1;
#X connect 13 0 7 1;
#X connect 14 0 8 0;
#X connect 14 0 6 0;
#X connect 15 0 37 0;
#X connect 16 0 22 1;
#X connect 16 0 23 1;
#X connect 16 0 42 1;
#X connect 16 0 43 1;
#X connect 17 0 4 1;
#X connect 17 0 2 1;
#X connect 17 0 5 1;
#X connect 17 0 3 1;
#X connect 18 0 36 0;
#X connect 18 0 56 1;
#X connect 18 0 58 0;
#X connect 19 0 59 0;
#X connect 19 0 60 1;
#X connect 19 0 62 0;
#X connect 20 0 66 0;
#X connect 20 0 63 0;
#X connect 20 0 64 1;
#X connect 21 0 70 0;
#X connect 21 0 68 1;
#X connect 21 0 67 0;
#X connect 22 0 32 0;
#X connect 23 0 33 0;
#X connect 28 0 71 0;
#X connect 29 0 16 0;
#X connect 30 0 17 0;
#X connect 31 0 73 0;
#X connect 31 0 82 0;
#X connect 31 0 72 0;
#X connect 34 0 30 0;
#X connect 35 0 34 0;
#X connect 36 0 56 0;
#X connect 37 0 28 0;
#X connect 38 0 35 0;
#X connect 39 0 46 0;
#X connect 40 0 48 0;
#X connect 41 0 37 0;
#X connect 41 0 38 0;
#X connect 41 0 39 0;
#X connect 41 0 40 0;
#X connect 42 0 44 0;
#X connect 43 0 45 0;
#X connect 46 0 47 0;
#X connect 46 1 49 0;
#X connect 47 0 49 0;
#X connect 48 0 52 0;
#X connect 49 0 36 1;
#X connect 49 0 59 1;
#X connect 49 0 63 1;
#X connect 49 0 67 1;
#X connect 50 0 49 0;
#X connect 51 0 40 0;
#X connect 52 0 53 0;
#X connect 53 0 54 0;
#X connect 54 0 55 0;
#X connect 55 0 57 1;
#X connect 55 0 61 1;
#X connect 55 0 65 1;
#X connect 55 0 69 1;
#X connect 56 0 57 0;
#X connect 57 0 58 1;
#X connect 58 0 2 0;
#X connect 59 0 60 0;
#X connect 60 0 61 0;
#X connect 61 0 62 1;
#X connect 62 0 4 0;
#X connect 63 0 64 0;
#X connect 64 0 65 0;
#X connect 65 0 66 1;
#X connect 66 0 5 0;
#X connect 67 0 68 0;
#X connect 68 0 69 0;
#X connect 69 0 70 1;
#X connect 70 0 3 0;
#X connect 71 0 29 0;
#X connect 72 0 84 0;
#X connect 73 0 75 0;
#X connect 73 0 74 0;
#X connect 74 0 77 0;
#X connect 74 0 76 0;
#X connect 75 0 86 0;
#X connect 76 0 88 0;
#X connect 77 0 79 0;
#X connect 77 0 78 0;
#X connect 78 0 92 0;
#X connect 79 0 81 0;
#X connect 79 0 80 0;
#X connect 80 0 90 0;
#X connect 81 0 10 0;
#X connect 83 0 73 1;
#X connect 83 0 72 1;
#X connect 85 0 74 1;
#X connect 85 0 75 1;
#X connect 87 0 77 1;
#X connect 87 0 76 1;
#X connect 89 0 79 1;
#X connect 89 0 78 1;
#X connect 91 0 11 0;
#X connect 93 0 81 1;
#X connect 93 0 80 1;
#X restore 390 467 pd reverb;
#X connect 0 0 1 0;
#X connect 0 0 1 1;
#X connect 2 0 5 0;
#X connect 3 0 6 0;
#X connect 3 1 6 1;
#X connect 3 1 10 2;
#X connect 4 0 8 0;
#X connect 5 0 10 0;
#X connect 6 0 4 0;
#X connect 6 1 7 0;
#X connect 7 0 10 1;
#X connect 8 0 2 0;
#X connect 9 0 0 1;
#X connect 10 0 0 0;
#X connect 10 0 23 0;
#X connect 10 0 55 0;
#X connect 11 0 15 0;
#X connect 12 0 16 0;
#X connect 15 0 13 0;
#X connect 16 0 14 0;
#X connect 17 0 21 0;
#X connect 18 0 9 0;
#X connect 19 0 15 0;
#X connect 20 0 16 0;
#X connect 21 0 22 0;
#X connect 21 1 22 1;
#X connect 22 0 4 0;
#X connect 22 1 7 0;
#X connect 23 0 0 0;
#X connect 24 0 23 1;
#X connect 25 0 23 2;
#X connect 26 0 27 0;
#X connect 27 0 9 0;
#X connect 28 0 31 0;
#X connect 29 0 30 0;
#X connect 30 0 15 0;
#X connect 31 0 16 0;
#X connect 32 0 33 0;
#X connect 33 0 36 0;
#X connect 34 0 37 0;
#X connect 35 0 33 0;
#X connect 37 0 33 0;
#X connect 38 0 40 1;
#X connect 38 0 41 1;
#X connect 39 0 55 3;
#X connect 40 0 1 0;
#X connect 41 0 1 1;
#X connect 42 0 55 4;
#X connect 43 0 55 1;
#X connect 44 0 43 0;
#X connect 45 0 50 0;
#X connect 46 0 39 0;
#X connect 47 0 42 0;
#X connect 48 0 38 0;
#X connect 49 0 48 0;
#X connect 49 0 51 0;
#X connect 49 0 52 0;
#X connect 49 0 53 0;
#X connect 49 0 54 0;
#X connect 50 0 55 2;
#X connect 51 0 50 0;
#X connect 52 0 39 0;
#X connect 53 0 42 0;
#X connect 54 0 43 0;
#X connect 55 0 40 0;
#X connect 55 1 41 0;
