#N canvas -278 -811 1015 692 12;
#X obj 535 433 *~;
#X obj 511 652 dac~;
#N canvas 588 -516 692 300 oscillators 0;
#X obj 106 113 phasor~;
#X floatatom 106 49 5 0 0 0 - - - 0;
#X obj 251 111 phasor~;
#X obj 251 85 * 1.001;
#X obj 105 13 inlet;
#X obj 99 244 outlet~, f 8;
#X obj 43 118 osc~;
#X obj 106 140 expr~ ($v1 * 2) - 1;
#X obj 250 142 expr~ ($v1 * 2) - 1;
#X obj 40 168 *~ -1;
#X obj 40 144 *~ 0.9;
#X obj 44 195 *~;
#X obj 204 10 inlet;
#X obj 51 93 / 4;
#X floatatom 202 47 5 0 8 0 - - - 0;
#X connect 0 0 7 0;
#X connect 1 0 0 0;
#X connect 1 0 3 0;
#X connect 1 0 13 0;
#X connect 2 0 8 0;
#X connect 3 0 2 0;
#X connect 4 0 1 0;
#X connect 6 0 10 0;
#X connect 7 0 5 0;
#X connect 8 0 5 0;
#X connect 9 0 11 0;
#X connect 10 0 9 0;
#X connect 11 0 5 0;
#X connect 12 0 14 0;
#X connect 13 0 6 0;
#X connect 14 0 11 1;
#X coords 0 0 1 1 85 60 0;
#X restore 532 188 pd oscillators;
#X obj 531 15 notein;
#X obj 532 117 mtof;
#N canvas 506 238 450 300 filters 0;
#X obj 123 230 vcf~;
#X msg 123 86 1.5;
#X obj 66 46 loadbang;
#X obj 23 19 inlet~;
#X obj 124 264 outlet~;
#X obj 201 35 receive cutoff;
#X floatatom 201 65 5 0 0 0 - - - 0;
#X obj 181 6 receive reso;
#X msg 67 86 20000;
#X floatatom 207 109 5 0 100 0 - - - 0;
#X obj 210 231 *~ 0.45;
#X obj 44 247 *~ 0.45;
#X connect 0 0 11 0;
#X connect 0 1 10 0;
#X connect 1 0 0 2;
#X connect 2 0 8 0;
#X connect 2 0 1 0;
#X connect 3 0 0 0;
#X connect 5 0 6 0;
#X connect 6 0 0 1;
#X connect 7 0 9 0;
#X connect 8 0 0 1;
#X connect 9 0 0 2;
#X connect 10 0 4 0;
#X connect 11 0 4 0;
#X restore 532 221 pd filters;
#X obj 532 50 stripnote;
#X floatatom 532 147 5 0 0 0 - - - 0;
#X obj 14 363 send cutoff;
#X floatatom 14 339 5 0 10000 0 - - - 0;
#X obj 446 15 r notein;
#X obj 13 267 r set_cutoff;
#X obj 447 42 unpack f f;
#X obj 415 73 makenote 100 500;
#N canvas 254 -593 371 531 chorus 0;
#X obj 39 43 delwrite~ \$0-buffer 100;
#X obj 37 245 delread4~ \$0-buffer;
#X obj 49 279 hsl 162 19 0 1 0 0 empty empty empty -2 -10 0 12 #fcfcfc #000000 #000000 0 1;
#X obj 36 304 *~;
#X obj 38 132 osc~;
#X floatatom 38 106 5 0 2 0 - - - 0;
#X obj 38 156 expr~ ($v1 + 1) / 2;
#X obj 38 180 *~;
#X floatatom 155 182 5 0 127 0 - - - 0;
#X obj 38 208 +~ 5;
#X obj 80 207 delread4~ \$0-buffer;
#X obj 40 77 hsl 162 19 0 2 0 0 empty empty empty -2 -10 0 12 #fcfcfc #000000 #000000 0 1;
#X obj 36 330 outlet~;
#X obj 39 10 inlet~;
#X obj 125 11 inlet;
#X obj 190 246 inlet;
#X connect 1 0 3 0;
#X connect 2 0 3 1;
#X connect 3 0 12 0;
#X connect 4 0 6 0;
#X connect 5 0 4 0;
#X connect 6 0 7 0;
#X connect 7 0 9 0;
#X connect 8 0 7 1;
#X connect 9 0 1 0;
#X connect 10 0 1 0;
#X connect 11 0 5 0;
#X connect 13 0 0 0;
#X connect 14 0 11 0;
#X connect 15 0 2 0;
#X restore 367 135 pd chorus;
#X obj 364 15 r lfo_freq;
#X obj 382 41 r chorus;
#X obj 452 134 loadbang;
#X obj 41 291 loadbang;
#X msg 41 315 10000;
#X floatatom 15 463 5 0 100 0 - - - 0;
#X obj 29 415 loadbang;
#X obj 15 392 r set_reso;
#X obj 16 488 send reso;
#X msg 29 439 2;
#X floatatom 311 439 5 0 1 0 - - - 0;
#X floatatom 286 385 5 0 0 0 - - - 0;
#X floatatom 323 384 5 0 0 0 - - - 0;
#X floatatom 207 385 5 0 0 0 - - - 0;
#X obj 13 125 r set_reverb;
#X obj 11 73 r set_feed;
#X obj 8 16 r set_crossfreq;
#X obj 73 43 r set_damp;
#X obj 393 298 loadbang;
#X floatatom 248 385 5 0 0 0 - - - 0;
#X msg 325 289 90;
#X msg 333 325 3000;
#X msg 357 354 20;
#X msg 314 253 0;
#N canvas 87 -852 1042 655 reverb 0;
#X obj 303 443 +~;
#X obj 557 7 inlet;
#X obj 322 343 *~;
#X obj 417 343 *~;
#X obj 381 490 +~;
#X obj 303 490 +~;
#X obj 304 380 +~;
#X obj 399 380 +~;
#X obj 381 443 -~;
#X obj 489 7 inlet;
#X obj 624 360 line~;
#X obj 509 295 line~;
#X obj 324 89 delread~ \$0-del1 58.6435, f 8;
#X obj 402 89 delread~ \$0-del2 69.4325, f 8;
#X obj 537 438 *~;
#X obj 606 438 *~;
#X obj 303 527 delwrite~ \$0-del1 58.6435, f 9;
#X obj 381 527 delwrite~ \$0-del2 69.4325, f 9;
#X obj 624 288 dbtorms;
#X obj 624 334 pack 0 30;
#X obj 557 142 pack 0 50;
#X obj 287 14 inlet~;
#X obj 537 606 outlet~;
#X obj 606 606 outlet~;
#X obj 557 118 / 200;
#X obj 557 93 clip 0 100;
#X obj 364 174 lop~;
#X obj 489 69 f \$1;
#X obj 557 69 f \$2;
#X obj 662 69 f \$3;
#X obj 733 69 f \$4;
#X obj 662 35 loadbang;
#X obj 662 98 moses 1;
#X msg 662 122 3000;
#X obj 733 124 clip 0 100;
#X obj 655 150 f;
#X obj 655 7 inlet;
#X obj 733 7 inlet;
#X obj 733 147 f;
#X obj 733 170 * 0.01;
#X obj 733 194 pack 0 50;
#X obj 733 218 line~;
#X obj 342 212 -~;
#X obj 342 238 *~;
#X obj 324 283 +~;
#X obj 442 177 lop~;
#X obj 421 212 -~;
#X obj 421 247 *~;
#X obj 403 283 +~;
#X obj 624 310 * 0.125;
#X obj 110 144 -~;
#X obj 7 129 +~;
#X obj 8 205 +~;
#X obj 92 221 -~;
#X obj 128 84 delwrite~ \$0-ref1 43.5337;
#X obj 128 111 delread~ \$0-ref1 43.5337;
#X obj 110 170 delwrite~ \$0-ref2 25.796;
#X obj 110 194 delread~ \$0-ref2 25.796;
#X connect 0 0 5 0;
#X connect 1 0 28 0;
#X connect 2 0 6 1;
#X connect 3 0 7 1;
#X connect 4 0 17 0;
#X connect 5 0 16 0;
#X connect 6 0 8 0;
#X connect 6 0 0 0;
#X connect 6 0 14 0;
#X connect 7 0 0 1;
#X connect 7 0 8 1;
#X connect 7 0 15 0;
#X connect 8 0 4 0;
#X connect 9 0 27 0;
#X connect 10 0 14 1;
#X connect 10 0 15 1;
#X connect 11 0 3 1;
#X connect 11 0 2 1;
#X connect 12 0 26 0;
#X connect 12 0 42 1;
#X connect 12 0 44 0;
#X connect 13 0 45 0;
#X connect 13 0 46 1;
#X connect 13 0 48 0;
#X connect 14 0 22 0;
#X connect 15 0 23 0;
#X connect 18 0 49 0;
#X connect 19 0 10 0;
#X connect 20 0 11 0;
#X connect 21 0 51 0;
#X connect 21 0 54 0;
#X connect 21 0 50 0;
#X connect 24 0 20 0;
#X connect 25 0 24 0;
#X connect 26 0 42 0;
#X connect 27 0 18 0;
#X connect 28 0 25 0;
#X connect 29 0 32 0;
#X connect 30 0 34 0;
#X connect 31 0 27 0;
#X connect 31 0 28 0;
#X connect 31 0 29 0;
#X connect 31 0 30 0;
#X connect 32 0 33 0;
#X connect 32 1 35 0;
#X connect 33 0 35 0;
#X connect 34 0 38 0;
#X connect 35 0 26 1;
#X connect 35 0 45 1;
#X connect 36 0 35 0;
#X connect 37 0 30 0;
#X connect 38 0 39 0;
#X connect 39 0 40 0;
#X connect 40 0 41 0;
#X connect 41 0 43 1;
#X connect 41 0 47 1;
#X connect 42 0 43 0;
#X connect 43 0 44 1;
#X connect 44 0 2 0;
#X connect 45 0 46 0;
#X connect 46 0 47 0;
#X connect 47 0 48 1;
#X connect 48 0 3 0;
#X connect 49 0 19 0;
#X connect 50 0 56 0;
#X connect 51 0 53 0;
#X connect 51 0 52 0;
#X connect 52 0 6 0;
#X connect 53 0 7 0;
#X connect 55 0 51 1;
#X connect 55 0 50 1;
#X connect 57 0 52 1;
#X connect 57 0 53 1;
#X restore 204 435 pd reverb;
#X obj 434 221 *~;
#X floatatom 453 185 5 0 0 0 - - - 0;
#X obj 204 462 *~;
#X obj 264 473 *~;
#X obj 588 586 clip~ -0.45 0.45;
#X obj 462 584 clip~ -0.45 0.45;
#N canvas 862 -685 450 299 delay 0;
#X obj 150 82 delwrite~ audio-buffer 3000;
#X obj 142 156 delread~ audio-buffer 0;
#X floatatom 142 131 5 0 0 0 - - - 0;
#X obj 142 221 *~;
#X floatatom 179 186 5 0 1 0 - - - 0;
#X obj 196 257 send~ feedback;
#X obj 198 233 *~;
#X floatatom 216 208 5 0 1 0 - - - 0;
#X obj 170 47 receive~ feedback;
#X obj 114 47 inlet~;
#X obj 275 184 loadbang;
#X msg 229 183 1;
#X obj 126 258 outlet~;
#X obj 305 45 inlet;
#X obj 356 44 inlet;
#X connect 1 0 3 0;
#X connect 1 0 6 0;
#X connect 2 0 1 0;
#X connect 3 0 12 0;
#X connect 4 0 3 1;
#X connect 6 0 5 0;
#X connect 7 0 6 1;
#X connect 8 0 0 0;
#X connect 9 0 0 0;
#X connect 10 0 11 0;
#X connect 11 0 4 0;
#X connect 13 0 2 0;
#X connect 14 0 7 0;
#X restore 280 135 pd delay;
#X obj 207 40 r set_delaytime;
#X obj 279 106 *~;
#X floatatom 298 79 5 0 10 0 - - - 0;
#X obj 122 16 r set_delayamount;
#X obj 249 16 r set_delayfeed;
#X obj 281 183 clip~ -0.6 0.6;
#X msg 386 397 0.5;
#X msg 454 161 0.5;
#X obj 635 14 r set_sub;
#X obj 93 317 ctlin 74;
#X obj 71 439 ctlin 71;
#X floatatom 617 109 5 0 0 0 - - - 0;
#X obj 657 314 r set_volume;
#X msg 767 79 \; trigger 0;
#X obj 733 13 bng 19 250 50 0 empty empty empty 0 -6 0 8 #dfdfdf #000000 #000000;
#X obj 767 54 del 750;
#X floatatom 898 201 4 0 0 0 - - - 0;
#X floatatom 899 327 5 0 0 0 - - - 0;
#X obj 899 493 send release;
#X floatatom 894 455 5 0 0 0 - - - 0;
#X obj 903 391 r set_release;
#X obj 910 14 r set_attack;
#X obj 903 104 send attack;
#X obj 906 138 r set_decay;
#X obj 899 230 send decay;
#X obj 907 267 r set_sustain;
#X obj 900 359 send sustain;
#X obj 920 41 ctlin 114;
#X obj 921 166 ctlin 18;
#X obj 922 295 ctlin 19;
#X obj 918 419 ctlin 16;
#X obj 677 57 sel 0;
#X obj 674 107 bng 19 250 50 0 empty empty empty 0 -10 0 12 #fcfcfc #000000 #000000;
#X obj 706 99 bng 19 250 50 0 empty empty empty 0 -10 0 12 #fcfcfc #000000 #000000;
#X msg 649 154 \; trigger 0;
#X msg 752 124 \; trigger 1;
#X obj 650 217 r trigger;
#X obj 650 245 tgl 21 0 empty empty empty 0 -10 0 12 #dfdfdf #000000 #000000 0 1;
#N canvas 0 198 1039 730 adsr 0;
#X obj 99 61 inlet;
#X obj 555 114 inlet;
#X text 125 95 trigger;
#X obj 129 148 sel 0;
#X obj 190 273 f \$1;
#X obj 604 113 inlet;
#X obj 422 285 del \$2;
#X obj 446 313 f \$4;
#X obj 654 113 inlet;
#X obj 709 113 inlet;
#X obj 765 113 inlet;
#X msg 129 179 stop;
#X obj 596 315 pack 0 \$5;
#X obj 485 364 * \$1;
#X text 667 307 on release ramp;
#X text 668 324 back to zero;
#X obj 446 338 * 0.01;
#X text 122 35 ADSR ENVELOPE;
#X text 600 91 attack;
#X text 655 91 decay;
#X text 702 91 sustain;
#X text 762 91 release;
#X text 229 80 attack;
#X obj 231 101 moses;
#X obj 218 131 t b b;
#X msg 152 299 0;
#X text 58 266 ATTACK:;
#X text 279 98 test for negative trigger;
#X text 277 122 if so \, zero;
#X text 278 137 the output;
#X text 300 174 in any case;
#X text 303 158 ... do this;
#X text 105 515 Negative triggers cause the output to jump to zero and then attack (instead of attacking from the current location)., f 50;
#X text 565 581 Arguments: level \, attack time \, decay time \, sustain level \, release time. A \, D \, and R are in msec and S is in percent. This patch is used as an abstraction in various examples.;
#X text 309 374 multiply by peak level and pack with decay time, f 24;
#X text 292 281 on attack \, set a delay for sustain, f 17;
#X text 297 319 recall sustain value convert from percent, f 20;
#X text 58 290 optionally bash to zero, f 12;
#X text 664 476 generate envelope;
#X obj 263 164 b;
#X obj 190 298 pack f \$2;
#X obj 485 388 pack f \$3;
#X text 675 356 send to [line~];
#X obj 596 356 s \$0-line;
#X obj 485 419 s \$0-line;
#X text 367 420 send to [line~];
#X text 669 422 get attack \, decay and release lines, f 18;
#X obj 191 327 s \$0-line;
#X text 105 458 When you send this patch a positive trigger it schedules a [line~] to do an attack and decay \, and if zero \, it starts the release ramp., f 50;
#X text 105 568 Objects such as [f] and [pack] can be given dollar sign arguments to initialize their contents from [adsr]'s creation arguments. Inlets are supplied to change them on the fly., f 50;
#X text 41 135 if zero \, release and cancel decay, f 10;
#X text 18 328 then recall peak level and pack with attack time and send to [line~], f 24;
#X obj 595 429 r \$0-line;
#X floatatom 67 100 5 0 0 0 - - - 0;
#X obj 596 465 line;
#X obj 597 505 outlet;
#X floatatom 609 152 5 0 0 0 - - - 0;
#X floatatom 664 152 5 0 0 0 - - - 0;
#X floatatom 719 151 5 0 0 0 - - - 0;
#X floatatom 774 150 5 0 0 0 - - - 0;
#X floatatom 560 154 5 0 0 0 - - - 0;
#X text 553 91 level;
#X obj 485 115 loadbang;
#X msg 485 139 0.99;
#X connect 0 0 3 0;
#X connect 0 0 53 0;
#X connect 1 0 4 1;
#X connect 1 0 13 1;
#X connect 1 0 60 0;
#X connect 3 0 11 0;
#X connect 3 0 12 0;
#X connect 3 1 23 0;
#X connect 4 0 40 0;
#X connect 5 0 6 1;
#X connect 5 0 40 1;
#X connect 5 0 56 0;
#X connect 6 0 7 0;
#X connect 7 0 16 0;
#X connect 8 0 41 1;
#X connect 8 0 57 0;
#X connect 9 0 7 1;
#X connect 9 0 58 0;
#X connect 10 0 12 1;
#X connect 10 0 59 0;
#X connect 11 0 6 0;
#X connect 12 0 43 0;
#X connect 13 0 41 0;
#X connect 16 0 13 0;
#X connect 23 0 24 0;
#X connect 23 1 39 0;
#X connect 24 0 39 0;
#X connect 24 1 25 0;
#X connect 25 0 47 0;
#X connect 39 0 4 0;
#X connect 39 0 6 0;
#X connect 40 0 47 0;
#X connect 41 0 44 0;
#X connect 52 0 54 0;
#X connect 54 0 55 0;
#X connect 62 0 63 0;
#X connect 63 0 4 1;
#X connect 63 0 13 1;
#X restore 650 283 pd adsr 1 100 200 50 250;
#X floatatom 899 75 5 0 0 0 - - - 0;
#X floatatom 634 389 5 0 1 0 - - - 0;
#X msg 666 355 0.7;
#X obj 841 13 loadbang;
#X obj 838 146 loadbang;
#X obj 837 258 loadbang;
#X obj 764 314 loadbang;
#X msg 841 37 2;
#X msg 838 170 200;
#X msg 837 282 90;
#X msg 828 350 250;
#X obj 533 336 *~;
#X connect 0 0 44 0;
#X connect 0 0 45 0;
#X connect 2 0 5 0;
#X connect 3 0 6 0;
#X connect 3 1 6 1;
#X connect 3 1 78 0;
#X connect 4 0 7 0;
#X connect 5 0 97 0;
#X connect 6 0 4 0;
#X connect 6 1 58 0;
#X connect 7 0 2 0;
#X connect 9 0 8 0;
#X connect 10 0 12 0;
#X connect 11 0 9 0;
#X connect 12 0 13 0;
#X connect 12 1 13 1;
#X connect 13 0 4 0;
#X connect 13 1 58 0;
#X connect 13 1 78 0;
#X connect 14 0 40 0;
#X connect 15 0 14 1;
#X connect 16 0 14 2;
#X connect 17 0 54 0;
#X connect 18 0 19 0;
#X connect 19 0 9 0;
#X connect 20 0 23 0;
#X connect 21 0 24 0;
#X connect 22 0 20 0;
#X connect 24 0 20 0;
#X connect 25 0 42 1;
#X connect 25 0 43 1;
#X connect 26 0 39 3;
#X connect 27 0 39 4;
#X connect 28 0 39 1;
#X connect 29 0 28 0;
#X connect 30 0 34 0;
#X connect 31 0 26 0;
#X connect 32 0 27 0;
#X connect 33 0 35 0;
#X connect 33 0 36 0;
#X connect 33 0 37 0;
#X connect 33 0 38 0;
#X connect 33 0 53 0;
#X connect 34 0 39 2;
#X connect 35 0 34 0;
#X connect 36 0 26 0;
#X connect 37 0 27 0;
#X connect 38 0 28 0;
#X connect 39 0 42 0;
#X connect 39 1 43 0;
#X connect 40 0 0 0;
#X connect 41 0 40 1;
#X connect 42 0 45 0;
#X connect 43 0 44 0;
#X connect 44 0 1 1;
#X connect 45 0 1 0;
#X connect 46 0 52 0;
#X connect 47 0 46 1;
#X connect 48 0 46 0;
#X connect 49 0 48 1;
#X connect 50 0 49 0;
#X connect 51 0 46 2;
#X connect 52 0 0 0;
#X connect 53 0 25 0;
#X connect 54 0 41 0;
#X connect 55 0 2 1;
#X connect 56 0 9 0;
#X connect 57 0 20 0;
#X connect 58 0 85 1;
#X connect 59 0 87 0;
#X connect 61 0 62 0;
#X connect 61 0 82 0;
#X connect 62 0 60 0;
#X connect 63 0 71 0;
#X connect 63 0 85 3;
#X connect 64 0 73 0;
#X connect 64 0 85 4;
#X connect 66 0 65 0;
#X connect 66 0 85 5;
#X connect 67 0 66 0;
#X connect 68 0 86 0;
#X connect 70 0 63 0;
#X connect 72 0 64 0;
#X connect 74 0 86 0;
#X connect 75 0 63 0;
#X connect 76 0 64 0;
#X connect 77 0 66 0;
#X connect 78 0 79 0;
#X connect 78 0 81 0;
#X connect 78 1 80 0;
#X connect 78 1 82 0;
#X connect 83 0 84 0;
#X connect 84 0 85 0;
#X connect 85 0 97 1;
#X connect 86 0 69 0;
#X connect 86 0 85 2;
#X connect 87 0 0 1;
#X connect 88 0 87 0;
#X connect 89 0 93 0;
#X connect 90 0 94 0;
#X connect 91 0 95 0;
#X connect 92 0 96 0;
#X connect 92 0 88 0;
#X connect 93 0 86 0;
#X connect 94 0 63 0;
#X connect 95 0 64 0;
#X connect 96 0 66 0;
#X connect 97 0 0 0;
#X connect 97 0 14 0;
#X connect 97 0 48 0;
#X connect 97 0 39 0;
