#N canvas -277 -811 1014 691 12;
#X obj 474 425 *~;
#X obj 473 494 dac~;
#N canvas 588 -516 450 300 oscillators 0;
#X obj 43 112 phasor~;
#X obj 43 139 expr~ $v1 *2 + 1;
#X floatatom 43 59 5 0 0 0 - - - 0;
#X obj 165 114 phasor~;
#X obj 165 139 expr~ $v1 *2 + 1;
#X obj 165 88 * 1.001;
#X obj 42 23 inlet;
#X obj 43 207 outlet~, f 8;
#X obj 305 111 phasor~;
#X obj 305 136 expr~ $v1 *2 + 1;
#X obj 305 85 * 2.002;
#X connect 0 0 1 0;
#X connect 1 0 7 0;
#X connect 2 0 0 0;
#X connect 2 0 5 0;
#X connect 2 0 10 0;
#X connect 3 0 4 0;
#X connect 4 0 7 0;
#X connect 5 0 3 0;
#X connect 6 0 2 0;
#X connect 8 0 9 0;
#X connect 9 0 7 0;
#X connect 10 0 8 0;
#X restore 404 188 pd oscillators;
#X obj 474 21 notein;
#X obj 474 129 mtof;
#N canvas 506 238 450 300 filters 0;
#X obj 123 230 vcf~;
#X msg 123 86 1.5;
#X obj 66 46 loadbang;
#X obj 23 19 inlet~;
#X obj 124 264 outlet~;
#X obj 201 35 receive cutoff;
#X floatatom 201 65 5 0 20000 0 - - - 0;
#X obj 265 74 receive reso;
#X msg 67 86 20000;
#X floatatom 265 98 5 0 100 0 - - - 0;
#X connect 0 1 4 0;
#X connect 1 0 0 2;
#X connect 2 0 8 0;
#X connect 2 0 1 0;
#X connect 3 0 0 0;
#X connect 5 0 6 0;
#X connect 6 0 0 1;
#X connect 7 0 9 0;
#X connect 8 0 0 1;
#X connect 9 0 0 2;
#X restore 421 240 pd filters;
#X obj 455 58 stripnote;
#X floatatom 519 126 5 0 0 0 - - - 0;
#X floatatom 473 154 5 0 0 0 - - - 0;
#X obj 69 105 send cutoff;
#X obj 356 21 r notein;
#X obj 530 358 r set_volume;
#X obj 68 21 r set_cutoff;
#X obj 355 52 unpack f f;
#N canvas -104 -726 371 531 chorus 0;
#X obj 39 43 delwrite~ \$0-buffer 100;
#X obj 37 245 delread4~ \$0-buffer;
#X obj 49 279 hsl 162 19 0 1 0 0 empty empty empty -2 -10 0 12 #fcfcfc #000000 #000000 0 1;
#X obj 36 304 *~;
#X obj 38 132 osc~;
#X floatatom 38 106 5 0 2 0 - - - 0;
#X obj 38 180 *~;
#X obj 38 208 +~ 5;
#X obj 80 207 delread4~ \$0-buffer;
#X obj 40 77 hsl 162 19 0 2 0 0 empty empty empty -2 -10 0 12 #fcfcfc #000000 #000000 0 1;
#X obj 36 330 outlet~;
#X obj 39 10 inlet~;
#X obj 125 11 inlet;
#X obj 190 246 inlet;
#X obj 38 156 expr~ 5 + ($v1 * 5 * 0.15);
#X floatatom 154 180 5 0 127 0 - - - 0;
#X msg 238 181 4;
#X obj 243 81 loadbang;
#X connect 1 0 3 0;
#X connect 2 0 3 1;
#X connect 3 0 10 0;
#X connect 4 0 14 0;
#X connect 5 0 4 0;
#X connect 6 0 7 0;
#X connect 7 0 1 0;
#X connect 8 0 1 0;
#X connect 9 0 5 0;
#X connect 11 0 0 0;
#X connect 12 0 9 0;
#X connect 13 0 2 0;
#X connect 14 0 6 0;
#X connect 15 0 6 1;
#X connect 16 0 15 0;
#X connect 17 0 16 0;
#X restore 369 318 pd chorus;
#X obj 181 98 r lfo_freq;
#X obj 261 98 r chorus;
#X msg 671 86 \; trigger 0;
#X obj 654 23 bng 19 250 50 0 empty empty empty 0 -6 0 8 #dfdfdf #000000 #000000;
#X obj 671 61 del 750;
#X floatatom 72 82 5 0 10000 0 - - - 0;
#X floatatom 802 208 4 0 0 0 - - - 0;
#X floatatom 803 334 5 0 0 0 - - - 0;
#X obj 803 500 send release;
#X floatatom 798 462 5 0 0 0 - - - 0;
#X obj 807 398 r set_release;
#X obj 814 21 r set_attack;
#X obj 807 111 send attack;
#X obj 810 145 r set_decay;
#X obj 803 237 send decay;
#X obj 811 274 r set_sustain;
#X obj 804 366 send sustain;
#X obj 824 48 ctlin 114;
#X obj 825 173 ctlin 18;
#X obj 826 302 ctlin 19;
#X obj 822 426 ctlin 16;
#X obj 581 64 sel 0;
#X obj 580 106 bng 19 250 50 0 empty empty empty 0 -10 0 12 #fcfcfc #000000 #000000;
#X obj 613 105 bng 19 250 50 0 empty empty empty 0 -10 0 12 #fcfcfc #000000 #000000;
#X msg 562 132 \; trigger 0;
#X msg 656 131 \; trigger 1;
#X obj 523 261 r trigger;
#X obj 523 289 tgl 21 0 empty empty empty 0 -10 0 12 #dfdfdf #000000 #000000 0 1;
#N canvas 0 198 1039 730 adsr 0;
#X obj 99 61 inlet;
#X obj 555 114 inlet;
#X text 125 95 trigger;
#X obj 129 148 sel 0;
#X obj 190 273 f \$1;
#X obj 604 113 inlet;
#X obj 422 285 del \$2;
#X obj 446 313 f \$4;
#X obj 654 113 inlet;
#X obj 709 113 inlet;
#X obj 765 113 inlet;
#X msg 129 179 stop;
#X obj 596 315 pack 0 \$5;
#X obj 485 364 * \$1;
#X text 667 307 on release ramp;
#X text 668 324 back to zero;
#X obj 446 338 * 0.01;
#X text 122 35 ADSR ENVELOPE;
#X text 600 91 attack;
#X text 655 91 decay;
#X text 702 91 sustain;
#X text 762 91 release;
#X text 229 80 attack;
#X obj 231 101 moses;
#X obj 218 131 t b b;
#X msg 152 299 0;
#X text 58 266 ATTACK:;
#X text 279 98 test for negative trigger;
#X text 277 122 if so \, zero;
#X text 278 137 the output;
#X text 300 174 in any case;
#X text 303 158 ... do this;
#X text 105 515 Negative triggers cause the output to jump to zero and then attack (instead of attacking from the current location)., f 50;
#X text 565 581 Arguments: level \, attack time \, decay time \, sustain level \, release time. A \, D \, and R are in msec and S is in percent. This patch is used as an abstraction in various examples.;
#X text 309 374 multiply by peak level and pack with decay time, f 24;
#X text 292 281 on attack \, set a delay for sustain, f 17;
#X text 297 319 recall sustain value convert from percent, f 20;
#X text 58 290 optionally bash to zero, f 12;
#X text 664 476 generate envelope;
#X obj 263 164 b;
#X obj 190 298 pack f \$2;
#X obj 485 388 pack f \$3;
#X text 675 356 send to [line~];
#X obj 596 356 s \$0-line;
#X obj 485 419 s \$0-line;
#X text 367 420 send to [line~];
#X text 669 422 get attack \, decay and release lines, f 18;
#X obj 191 327 s \$0-line;
#X text 105 458 When you send this patch a positive trigger it schedules a [line~] to do an attack and decay \, and if zero \, it starts the release ramp., f 50;
#X text 105 568 Objects such as [f] and [pack] can be given dollar sign arguments to initialize their contents from [adsr]'s creation arguments. Inlets are supplied to change them on the fly., f 50;
#X text 41 135 if zero \, release and cancel decay, f 10;
#X text 18 328 then recall peak level and pack with attack time and send to [line~], f 24;
#X obj 595 429 r \$0-line;
#X floatatom 67 100 5 0 0 0 - - - 0;
#X obj 596 465 line;
#X obj 597 505 outlet;
#X floatatom 609 152 5 0 0 0 - - - 0;
#X floatatom 664 152 5 0 0 0 - - - 0;
#X floatatom 719 151 5 0 0 0 - - - 0;
#X floatatom 774 150 5 0 0 0 - - - 0;
#X floatatom 560 154 5 0 0 0 - - - 0;
#X text 553 91 level;
#X obj 485 115 loadbang;
#X msg 485 139 0.99;
#X connect 0 0 3 0;
#X connect 0 0 53 0;
#X connect 1 0 4 1;
#X connect 1 0 13 1;
#X connect 1 0 60 0;
#X connect 3 0 11 0;
#X connect 3 0 12 0;
#X connect 3 1 23 0;
#X connect 4 0 40 0;
#X connect 5 0 6 1;
#X connect 5 0 40 1;
#X connect 5 0 56 0;
#X connect 6 0 7 0;
#X connect 7 0 16 0;
#X connect 8 0 41 1;
#X connect 8 0 57 0;
#X connect 9 0 7 1;
#X connect 9 0 58 0;
#X connect 10 0 12 1;
#X connect 10 0 59 0;
#X connect 11 0 6 0;
#X connect 12 0 43 0;
#X connect 13 0 41 0;
#X connect 16 0 13 0;
#X connect 23 0 24 0;
#X connect 23 1 39 0;
#X connect 24 0 39 0;
#X connect 24 1 25 0;
#X connect 25 0 47 0;
#X connect 39 0 4 0;
#X connect 39 0 6 0;
#X connect 40 0 47 0;
#X connect 41 0 44 0;
#X connect 52 0 54 0;
#X connect 54 0 55 0;
#X connect 62 0 63 0;
#X connect 63 0 4 1;
#X connect 63 0 13 1;
#X restore 523 327 pd adsr 1 100 200 50 250;
#X obj 474 458 *~;
#X floatatom 803 82 5 0 0 0 - - - 0;
#X floatatom 507 433 5 0 1 0 - - - 0;
#X floatatom 77 195 5 0 10000 0 - - - 0;
#X obj 77 219 send reso;
#X obj 76 135 r set_reso;
#X obj 84 160 ctlin 71;
#X obj 78 46 ctlin 74;
#X msg 539 399 0.7;
#X obj 745 20 loadbang;
#X obj 742 153 loadbang;
#X obj 741 265 loadbang;
#X obj 637 358 loadbang;
#X msg 745 44 2;
#X msg 742 177 200;
#X msg 741 289 90;
#X msg 701 394 250;
#X obj 6 41 loadbang;
#X msg 23 66 8000;
#X obj 357 212 loadbang;
#X msg 308 244 2;
#X msg 357 243 0;
#X msg 43 161 20;
#X obj 164 21 r clear_notes;
#X obj 264 21 r stop_notes;
#X msg 265 46 stop;
#X msg 164 46 clear;
#X obj 352 82 makenote 100 200;
#X obj 330 129 print notein_debug;
#X connect 0 0 44 0;
#X connect 2 0 5 0;
#X connect 3 0 6 0;
#X connect 3 1 6 1;
#X connect 3 1 36 0;
#X connect 4 0 8 0;
#X connect 5 0 14 0;
#X connect 5 0 0 0;
#X connect 6 0 4 0;
#X connect 6 1 7 0;
#X connect 7 0 43 1;
#X connect 8 0 2 0;
#X connect 10 0 13 0;
#X connect 10 0 72 0;
#X connect 11 0 46 0;
#X connect 12 0 20 0;
#X connect 13 0 71 0;
#X connect 13 1 71 1;
#X connect 14 0 0 0;
#X connect 15 0 14 1;
#X connect 16 0 14 2;
#X connect 18 0 19 0;
#X connect 18 0 40 0;
#X connect 19 0 17 0;
#X connect 20 0 9 0;
#X connect 21 0 29 0;
#X connect 21 0 43 3;
#X connect 22 0 31 0;
#X connect 22 0 43 4;
#X connect 24 0 23 0;
#X connect 24 0 43 5;
#X connect 25 0 24 0;
#X connect 26 0 45 0;
#X connect 28 0 21 0;
#X connect 30 0 22 0;
#X connect 32 0 45 0;
#X connect 33 0 21 0;
#X connect 34 0 22 0;
#X connect 35 0 24 0;
#X connect 36 0 37 0;
#X connect 36 0 39 0;
#X connect 36 1 38 0;
#X connect 36 1 40 0;
#X connect 41 0 42 0;
#X connect 42 0 43 0;
#X connect 43 0 0 1;
#X connect 44 0 1 0;
#X connect 44 0 1 1;
#X connect 45 0 27 0;
#X connect 45 0 43 2;
#X connect 46 0 44 1;
#X connect 47 0 48 0;
#X connect 49 0 47 0;
#X connect 50 0 47 0;
#X connect 51 0 20 0;
#X connect 52 0 46 0;
#X connect 53 0 57 0;
#X connect 54 0 58 0;
#X connect 55 0 59 0;
#X connect 56 0 60 0;
#X connect 56 0 52 0;
#X connect 57 0 45 0;
#X connect 58 0 21 0;
#X connect 59 0 22 0;
#X connect 60 0 24 0;
#X connect 61 0 62 0;
#X connect 61 0 66 0;
#X connect 62 0 20 0;
#X connect 63 0 65 0;
#X connect 63 0 64 0;
#X connect 64 0 14 1;
#X connect 65 0 14 2;
#X connect 66 0 47 0;
#X connect 67 0 70 0;
#X connect 68 0 69 0;
#X connect 69 0 71 0;
#X connect 70 0 71 0;
#X connect 71 0 4 0;
#X connect 71 1 7 0;
#X connect 71 1 36 0;
