#N canvas 469 -900 580 420 12;
#X obj 255 15 loadbang;
#X msg 63 114 0;
#X obj 167 104 metro;
#X obj 182 169 f;
#X obj 226 169 + 1;
#X obj 21 230 mod 32;
#X obj 90 228 mod 16;
#X obj 159 228 mod 8;
#X obj 225 229 mod 4;
#X obj 290 228 mod 2;
#X obj 20 254 select 0;
#X obj 90 253 select 0;
#X obj 159 253 select 0;
#X obj 226 252 select 0;
#X obj 291 252 select 0;
#X obj 23 325 send clock_whole;
#X obj 46 292 send clock_half;
#X obj 160 325 send clock_quarter;
#X obj 226 301 send clock_eighth;
#X obj 292 279 send clock_16th;
#X obj 378 223 send clock_32nd;
#X obj 255 46 f 120;
#X obj 182 15 r set_bpm;
#X obj 11 16 r reset;
#X obj 72 16 r start;
#X obj 372 109 f 0;
#X obj 424 105 + 1;
#X obj 386 140 mod 16;
#X obj 374 195 send android_step_number;
#X obj 129 18 r stop;
#X msg 156 53 0;
#X msg 92 57 1;
#X obj 255 75 expr 60000/(4*$f1);
#X connect 0 0 21 0;
#X connect 1 0 3 0;
#X connect 2 0 3 0;
#X connect 2 0 20 0;
#X connect 2 0 25 0;
#X connect 3 0 4 0;
#X connect 3 0 5 0;
#X connect 3 0 6 0;
#X connect 3 0 7 0;
#X connect 3 0 8 0;
#X connect 3 0 9 0;
#X connect 4 0 3 1;
#X connect 5 0 10 0;
#X connect 6 0 11 0;
#X connect 7 0 12 0;
#X connect 8 0 13 0;
#X connect 9 0 14 0;
#X connect 10 0 15 0;
#X connect 11 0 16 0;
#X connect 12 0 17 0;
#X connect 13 0 18 0;
#X connect 14 0 19 0;
#X connect 21 0 32 0;
#X connect 22 0 32 0;
#X connect 23 0 1 0;
#X connect 24 0 31 0;
#X connect 25 0 26 0;
#X connect 26 0 27 0;
#X connect 26 0 25 1;
#X connect 27 0 28 0;
#X connect 29 0 30 0;
#X connect 30 0 2 0;
#X connect 31 0 2 0;
#X connect 32 0 2 1;
