#N canvas -219 -907 1051 770 12;
#X declare -stdpath ./;
#N canvas 0 0 450 300 (subpatch) 0;
#X array tab28 19453 float 2;
#A color 0;
#A width 2;
#X coords 0 1.02 19453 -1.02 347 161 1;
#X restore 105 612 graph;
#X obj 86 192 *~;
#X obj 86 75 r phase;
#X obj 325 154 delay 5;
#X obj 86 244 output~;
#X obj 86 135 tabread4~ tab28;
#X text 230 151 cut the sound off, f 9;
#X text 384 146 Wait for the cutoff to finish, f 16;
#X obj 685 21 declare -stdpath ./;
#X text 249 98 <-- play the sample;
#X obj 225 99 bng 19 250 50 0 empty empty empty 0 -6 0 8 #dfdfdf #000000 #000000;
#X text 52 352 Here's how to make a sampler with a [line~] object \, instead of a [phasor~] \, to generate the read location signal.;
#X text 52 514 The cutoff mechanism is still safe if we happen to ask for two notes in under 5 msec. The second request would reset the delay \, so that there's no way the delay can possibly fire without the cutoff [line~] at zero., f 59;
#X text 292 248 set the upper [line~] to start at the first sample and go "forever" (until the next trigger), f 33;
#X obj 86 105 line~;
#X obj 126 192 line~;
#X text 544 75 For recording \, we have a fade in and fade out mechanism to avoid clicks. To do this we added a level control to the recording patch that cuts off just before the recording reaches the end of the table., f 55;
#X obj 600 767 soundfiler;
#X obj 822 684 openpanel;
#X msg 600 733 read -resize \$1 tab28;
#X obj 600 609 bng 19 250 50 0 empty empty empty 0 -10 0 12 #dfdfdf #000000 #000000;
#X obj 600 579 loadbang;
#X obj 851 588 bng 19 250 50 0 empty empty empty 0 -10 0 12 #dfdfdf #000000 #000000;
#X text 846 629 read another sample, f 7;
#X text 630 610 (re) read original sample;
#X text 52 393 To start a note \, first we have to mute the output in case there's already something playing---otherwise we'll get a click. The "cutoff" [line~] then takes 5 msec to get to zero. After that amount of delay \, we reset the phase to sample number 1 and set it in motion. We want the [line~] output to increase by 1 each sample of output \, so we ask for it to do 4.8e+08 samples in 1e+07 milliseconds (assuming a sample rate of 48 KHz)., f 59;
#X obj 254 61 r sampler-play;
#X obj 827 369 r sampler-load;
#X obj 132 32 r sampler-filter-cutoff;
#X msg 226 289 \; sampler-filter-cutoff 0 5;
#X msg 325 189 \; phase 1 \, 4.8e+08 1e+07 \; sampler-filter-cutoff 1;
#X text 610 661, f 26;
#X obj 600 638 symbol ltr06lt.wav;
#X connect 1 0 4 0;
#X connect 2 0 14 0;
#X connect 3 0 30 0;
#X connect 5 0 1 0;
#X connect 10 0 3 0;
#X connect 10 0 29 0;
#X connect 14 0 5 0;
#X connect 15 0 1 1;
#X connect 18 0 19 0;
#X connect 19 0 17 0;
#X connect 20 0 32 0;
#X connect 21 0 20 0;
#X connect 22 0 18 0;
#X connect 26 0 3 0;
#X connect 26 0 29 0;
#X connect 27 0 18 0;
#X connect 28 0 15 0;
