#N canvas -59 -911 902 800 12;
#N canvas 0 0 450 300 (subpatch) 0;
#X array table21 48003 float 2;
#A color 0;
#A width 2;
#X coords 0 1.02 48003 -1.02 264 165 1;
#X restore 575 321 graph;
#X obj 469 429 loadbang;
#X floatatom 79 211 6 0 0 0 - - - 0;
#X obj 79 536 +~ 1;
#X obj 701 202 adc~ 1;
#X obj 250 663 *~;
#X floatatom 167 261 6 0 0 0 - - - 0;
#X obj 109 575 +~;
#X obj 167 571 samphold~;
#X obj 79 448 samphold~;
#X obj 79 511 *~;
#X floatatom 233 261 7 0 0 0 - \$0-cents - 0;
#X obj 175 330 t b f;
#X obj 227 365 /;
#X obj 553 637 soundfiler;
#X obj 268 566 -~ 0.5;
#X obj 268 592 *~ 0.5;
#X obj 268 625 cos~;
#X obj 109 610 tabread4~ table21;
#X obj 227 415 phasor~;
#X obj 701 282 tabwrite~ table21;
#X obj 720 239 bng 19 250 50 0 empty empty empty 17 7 0 10 #dfdfdf #000000 #000000;
#X floatatom 227 391 8 0 0 0 - - - 0;
#X obj 83 176 hsl 162 19 0 1000 0 0 empty \$0-size chunk\ size\ (ms) -2 -10 0 12 #dfdfdf #000000 #000000 0 1;
#X obj 176 222 hsl 162 19 -250 1000 0 0 empty \$0-read-point read\ point\ (ms) -2 -10 0 12 #dfdfdf #000000 #000000 0 1;
#X text 88 312 chunk size in seconds, f 10;
#X obj 227 300 expr pow(2 \, $f1/1200);
#X obj 175 300 / 1000;
#X text 314 625 envelope;
#X floatatom 227 328 9 0 0 0 - - - 0;
#X text 626 500 --- 48003 samples ---;
#X obj 167 536 * 48;
#X obj 79 415 * 48;
#X obj 76 60 r scrubber-chunk-size;
#X obj 224 123 r scrubber-transposition;
#X obj 273 148 r scrubber-speed-ratio;
#X obj 458 147 r scrubber-volume;
#X obj 716 78 r scrubber-record;
#X obj 446 120 r scrubber-mute;
#X obj 554 208 r scrubber-reset;
#X msg 286 666 mute \$1;
#X msg 361 669 level \$1;
#X obj 169 292 tgl 19 0 empty empty empty 0 -10 0 12 #fcfcfc #000000 #000000 0 1;
#X obj 343 560 tgl 19 0 empty empty empty 0 -10 0 12 #fcfcfc #000000 #000000 0 1;
#X obj 717 553 loadbang;
#X obj 717 608 f \$0;
#X obj 717 580 bng 19 250 50 0 empty empty empty 0 -10 0 12 #dfdfdf #000000 #000000;
#X msg 717 632 \; \$1-cents 0 \; \$1-read-point 0 \; \$1-size 250;
#X obj 455 242 r read-sample;
#X obj 249 732 dac~;
#X obj 403 506 symbol ../samples/ltr06lt.wav;
#X msg 506 595 read \$1 table21;
#X obj 165 90 r scrubber-read-point;
#X connect 1 0 50 0;
#X connect 2 0 27 0;
#X connect 2 0 32 0;
#X connect 3 0 7 0;
#X connect 4 0 20 0;
#X connect 5 0 49 0;
#X connect 5 0 49 1;
#X connect 6 0 31 0;
#X connect 7 0 18 0;
#X connect 8 0 7 1;
#X connect 9 0 10 0;
#X connect 10 0 3 0;
#X connect 11 0 26 0;
#X connect 12 0 13 0;
#X connect 12 1 13 1;
#X connect 13 0 22 0;
#X connect 15 0 16 0;
#X connect 16 0 17 0;
#X connect 17 0 5 1;
#X connect 18 0 5 0;
#X connect 19 0 8 1;
#X connect 19 0 15 0;
#X connect 19 0 9 1;
#X connect 19 0 10 1;
#X connect 21 0 20 0;
#X connect 22 0 19 0;
#X connect 23 0 2 0;
#X connect 24 0 6 0;
#X connect 26 0 29 0;
#X connect 27 0 12 0;
#X connect 29 0 13 0;
#X connect 31 0 8 0;
#X connect 32 0 9 0;
#X connect 33 0 2 0;
#X connect 34 0 26 0;
#X connect 35 0 29 0;
#X connect 36 0 41 0;
#X connect 37 0 21 0;
#X connect 38 0 43 0;
#X connect 39 0 50 0;
#X connect 43 0 40 0;
#X connect 44 0 46 0;
#X connect 45 0 47 0;
#X connect 46 0 45 0;
#X connect 48 0 14 0;
#X connect 50 0 51 0;
#X connect 51 0 14 0;
#X connect 52 0 6 0;
